# xmcd
# 
# Track frame offsets:
#   150
#   17550
#   37652
#   53402
#   73097
#   88129
#   100973
#   119339
#   134582
#   149411
#   166648
#   182438
#   197370
#   212003
# 
# Disc length: 2995 seconds
# 
# Revision: 0
# Processed by: cddbd v1.5.1PL2 Copyright (c) Steve Scherf et al.
# Submitted via: Synapstar 1.0 
# 
DISCID=b60bb10e
DTITLE=Various Artist - sd star disc
DYEAR=1900
DGENRE=Country
TTITLE0=tim mcgraw - some things never change
TTITLE1=dixie chicks - cold day in july
TTITLE2=lonestar - what about now
TTITLE3=garth brooks - when you come back to me again
TTITLE4=martina mcbride - there you are
TTITLE5=alan jackson - it must be love
TTITLE6=chely wright - she went out for cigarettes
TTITLE7=montgomery gentry - self made man
TTITLE8=leann rimes - i need you
TTITLE9=shania twain - when
TTITLE10=darryl worley - when you need my love
TTITLE11=alabama - we made love
TTITLE12=craig morgan - something to write home about
TTITLE13=randy travis - a little left of center
EXTD=MediaType: Karaoke CD+G Producer: StarDisc
EXTT0=
EXTT1=
EXTT2=
EXTT3=
EXTT4=
EXTT5=
EXTT6=
EXTT7=
EXTT8=
EXTT9=
EXTT10=
EXTT11=
EXTT12=
EXTT13=
PLAYORDER=
